<?xml version="1.0" encoding="UTF-8"?>
<svg version="1.1" xmlns="http://www.w3.org/2000/svg" width="3000" height="4000">
<path d="M0 0 C81 0 81 0 101.21118164 10.99975586 C105.59446631 15.38832731 109.54252564 19.47507571 113.44440007 24.19855952 C116.43186907 27.70930697 119.6721029 30.97497244 122.88414001 34.27894592 C128.8627104 40.49884936 134.60511075 46.89212493 140.27945369 53.38936955 C146.77335022 60.80122739 153.51866521 67.96523885 160.28712666 75.12568843 C170.77522226 86.23142996 181.12585029 97.44966043 191.26977539 108.87084961 C191.77642227 109.44006512 192.28306915 110.00928062 192.80506897 110.59574509 C194.2032476 112.16888893 195.59735368 113.74550658 196.98939514 115.32408142 C197.7691121 116.20808089 198.54882906 117.09208036 199.35217381 118.0028677 C201 120 201 120 201 121 C174.27 121 147.54 121 120 121 C120 127.27 120 133.54 120 140 C252 140 384 140 520 140 C520 225.8 520 311.6 520 400 C348.4 400 176.8 400 0 400 C0.80336225 395.98318877 1.50885388 393.60859609 3.27746582 390.07757568 C3.75700211 389.11293396 4.23653839 388.14829224 4.73060608 387.15441895 C5.25843185 386.10798218 5.78625763 385.06154541 6.33007812 383.98339844 C7.16181801 382.31685211 7.16181801 382.31685211 8.01036072 380.61663818 C9.52866642 377.57753683 11.05226625 374.54120534 12.57842064 371.50604534 C14.17422521 368.32949 15.76353134 365.14968626 17.3536377 361.97027588 C20.02292406 356.6353923 22.69670573 351.30278215 25.37353516 345.97167969 C28.81278554 339.12210045 32.24458169 332.2688148 35.67404938 325.41433334 C38.6204714 319.52546405 41.57030123 313.6383032 44.52068138 307.75141621 C45.47034522 305.85619144 46.41953724 303.96073093 47.3686676 302.06523895 C49.13323127 298.5419 50.90134166 295.02034808 52.66992188 291.49902344 C53.19774765 290.44448975 53.72557343 289.38995605 54.26939392 288.3034668 C54.74893021 287.35010437 55.22846649 286.39674194 55.72253418 285.41448975 C56.14065117 284.58123043 56.55876816 283.74797112 56.98955536 282.88946152 C58 281 58 281 59 280 C60.81403501 279.90249692 62.63191784 279.876286 64.44857121 279.87695217 C65.63840015 279.87496112 66.82822909 279.87297007 68.05411345 279.87091869 C69.3913869 279.87377228 70.72866016 279.87671788 72.06593323 279.87974548 C73.4733534 279.87930991 74.8807735 279.87843525 76.28819317 279.87715632 C80.17388074 279.87490872 84.05954102 279.87893624 87.94522512 279.88393438 C92.12861405 279.88823491 96.31200133 279.88679274 100.49539185 279.8860321 C107.74944489 279.88550662 115.00348896 279.888656 122.25753975 279.89426994 C132.74580391 279.90238159 143.23406372 279.90499982 153.72233068 279.90625793 C170.73700872 279.90844898 187.75168198 279.9151105 204.76635742 279.92456055 C221.29890926 279.9337333 237.8314598 279.9408148 254.36401367 279.94506836 C255.38231644 279.94533108 256.40061921 279.94559381 257.44977964 279.94586449 C262.55807729 279.94716949 267.66637496 279.9484332 272.77467263 279.94967639 C315.18311843 279.96005065 357.59155889 279.9777445 400 280 C400 273.73 400 267.46 400 261 C268 261 136 261 0 261 C0 174.87 0 88.74 0 0 Z " fill="#FFFFFF" transform="translate(1818,1876)"/>
<path d="M0 0 C39.6 0 79.2 0 120 0 C120.33 58.41 120.66 116.82 121 177 C139.01335937 158.89962891 139.01335937 158.89962891 157.390625 140.43359375 C164.9817011 132.8169849 172.57339833 125.20101261 180.16796875 117.58789062 C184.15562777 113.59044171 188.14313021 109.5928367 192.13037109 105.5949707 C192.88002181 104.84334187 192.88002181 104.84334187 193.64481699 104.07652861 C201.72116644 95.97841118 209.7886402 87.87150661 217.85289195 79.76134407 C226.12440338 71.44313448 234.40533106 63.13438762 242.69514251 54.83441502 C247.35302658 50.16999598 252.006365 45.50123228 256.64936066 40.82198906 C261.01503201 36.42251074 265.39215122 32.03476506 269.77852821 27.65593338 C271.3905789 26.04250131 272.99831357 24.42474419 274.6014843 22.80248833 C276.78269864 20.59657716 278.97858406 18.4064274 281.17901611 16.2197113 C281.81715311 15.5670101 282.45529011 14.91430889 283.1127646 14.24182886 C284.89970779 12.48505306 284.89970779 12.48505306 288 10 C292.2767263 10.43989313 294.5588237 13.15015125 297.43841553 16.0843811 C297.97521761 16.61932548 298.5120197 17.15426986 299.06508851 17.70542467 C300.86537942 19.5031121 302.65472227 21.31131651 304.44433594 23.11962891 C305.73176993 24.40954587 307.01987247 25.69879588 308.30859375 26.98742676 C311.0849128 29.76645411 313.85639988 32.5501828 316.62425995 35.33763504 C321.00486595 39.74924229 325.39580028 44.15047108 329.78814697 48.55038452 C336.73998736 55.51672754 343.6845751 62.49025127 350.62624383 69.46672857 C363.0410502 81.94334064 375.46788936 94.40796202 387.8976233 106.86970079 C392.25716987 111.24104623 396.6135121 115.61555295 400.96717024 119.9927628 C403.68437893 122.72386241 406.40362655 125.4529256 409.12332153 128.18154907 C410.37867433 129.44194385 411.63314416 130.70321882 412.88663483 131.96546555 C414.60660999 133.69725459 416.329763 135.42582306 418.0536499 137.15371704 C418.54122387 137.64625021 419.02879783 138.13878337 419.53114676 138.64624178 C423.54094216 142.65484296 427.70141126 146.23873485 432 150 C440.91 158.91 449.82 167.82 459 177 C459.33 151.59 459.66 126.18 460 100 C462.31 101.98 464.62 103.96 467 106 C468.69513392 107.18599813 470.41722309 108.33486018 472.16966248 109.43441772 C490.57648641 121.21434164 507.79066949 134.21811985 524.4375 148.375 C525.11036387 148.94438388 525.78322775 149.51376776 526.47648144 150.10040569 C562.61509572 180.82563284 583.51718202 212.69481869 587.47700208 260.70907319 C589.6116411 289.47627519 589.1502434 318.32373334 588.125 347.125 C588.07640146 348.5245701 588.0278409 349.92414152 587.97931814 351.32371426 C586.70562816 387.62510235 584.3581952 423.83056437 581 460 C578.21031498 458.72603944 576.16298958 457.41208093 574.00014114 455.24344349 C573.43280046 454.6794682 572.86545977 454.11549291 572.28092694 453.53442746 C571.36108899 452.60482781 571.36108899 452.60482781 570.42266846 451.65644836 C569.7633598 450.99814299 569.10405115 450.33983762 568.42476344 449.6615836 C566.21231485 447.4500891 564.00710003 445.23151895 561.80175781 443.01293945 C560.21854604 441.42752683 558.63488637 439.84256139 557.05081177 438.25801086 C553.63756907 434.84183196 550.22751089 431.42251627 546.81986237 428.00075722 C541.42879398 422.58743811 536.03066086 417.18120153 530.63153076 411.77592468 C523.05926347 404.19356231 515.49014224 396.60807747 507.92382812 389.01977539 C507.44370902 388.53826297 506.96358992 388.05675056 506.46892175 387.56064685 C505.98822942 387.07855899 505.50753709 386.59647113 505.01227832 386.09977454 C498.20842859 379.27618748 491.40363127 372.45354736 484.59765625 365.63208008 C483.8801775 364.91296506 483.8801775 364.91296506 483.14820424 364.17932246 C475.15830915 356.17137212 467.16635663 348.16547757 459.17336535 340.16061753 C453.81066487 334.7895227 448.45078694 329.41563162 443.09317827 324.03945792 C439.75323 320.68883692 436.41122794 317.34026995 433.06872177 313.99220085 C431.52312407 312.44314384 429.97839827 310.89321631 428.43462753 309.34233856 C426.32050835 307.21870484 424.20326141 305.09823677 422.08526611 302.97846985 C421.17881249 302.06560061 421.17881249 302.06560061 420.25404668 301.13428956 C416.5875378 297.4725887 412.78538918 294.02923305 408.8666122 290.63969857 C406.3459168 288.42543005 403.96699087 286.08980013 401.59619141 283.71644592 C401.11158038 283.23268932 400.62696936 282.74893272 400.12767315 282.25051683 C398.53326139 280.65772881 396.94240811 279.06143706 395.3515625 277.46508789 C394.19790283 276.31114565 393.04402193 275.15742454 391.88993835 274.00390625 C388.77876484 270.89301798 385.67066995 267.77907062 382.56314468 264.66453862 C379.30716393 261.40227875 376.04832427 258.14287728 372.78979492 254.88316345 C366.6292142 248.71948281 360.47118562 242.55325897 354.31408405 236.38610309 C347.30029864 229.36111486 340.28365123 222.3389882 333.26676941 215.31709301 C318.84134021 200.88122976 304.4194847 186.44180086 290 172 C283.42343122 177.40997072 277.46372391 183.40222205 271.45913696 189.42733765 C270.29082989 190.595925 269.12230076 191.76429037 267.95356977 192.93245375 C264.75382589 196.13190296 261.55719933 199.3344508 258.36107659 202.53751683 C254.90967363 205.99530678 251.45535537 209.45018217 248.00137329 212.90539551 C242.02107959 218.88857276 236.04256413 224.87352206 230.06520462 230.85963058 C221.4223987 239.51499442 212.77635173 248.16711491 204.12941591 256.81835265 C190.09900639 270.85582541 176.07046694 284.89516536 162.04345703 298.93603516 C161.20432449 299.77599551 160.36519194 300.61595587 159.50063114 301.48136957 C153.54203873 307.4458644 147.58351273 313.41042557 141.625 319.375 C134.80815336 326.19877831 127.99127372 333.02252365 121.17431641 339.84619141 C119.91442398 341.10732602 119.91442398 341.10732602 118.62907918 342.39393811 C104.64671511 356.38996662 90.66240368 370.38404781 76.67668951 384.37672865 C68.04568789 393.01222068 59.41647479 401.64949271 50.7895277 410.28903528 C44.88698902 416.19997128 38.98270894 422.10916391 33.07702787 428.01696031 C29.66501965 431.43031929 26.25386425 434.84452009 22.84486389 438.26088333 C19.72986703 441.38258307 16.61262269 444.50201934 13.49350755 447.61960407 C12.36025665 448.75312846 11.22786891 449.88751653 10.09639235 451.02281205 C8.5690669 452.55505664 7.0387551 454.08425205 5.50759315 455.61266136 C4.65511832 456.46605799 3.80264348 457.31945462 2.92433608 458.19871175 C1 460 1 460 0 460 C0 308.2 0 156.4 0 0 Z " fill="#FFFFFF" transform="translate(648,1876)"/>
<path d="M0 0 C69.20859251 -10.46537442 69.20859251 -10.46537442 94.44165039 7.8787384 C101.57821033 13.41288434 108.05183284 19.56536284 114.34375 26.03125 C115.29718922 27.00894033 115.29718922 27.00894033 116.26988983 28.00638199 C124.09297543 36.08784772 131.54465247 44.47099309 138.8734169 53.00047207 C147.03493468 62.48624964 155.51413863 71.68335671 164.01410675 80.86556244 C164.64265171 81.54482615 165.27119666 82.22408986 165.91878843 82.92393732 C167.17193317 84.27815967 168.42562246 85.63187832 169.67987108 86.98507833 C173.30212669 90.90799026 176.84795781 94.88468714 180.33604431 98.92728424 C182.49730683 101.42091594 184.69378003 103.88180525 186.89716148 106.33822823 C187.90056971 107.47468353 188.88774596 108.62573388 189.85595131 109.79232597 C194.97961762 116.10001256 194.97961762 116.10001256 202.15803337 119.45099831 C207.16010838 119.91075993 212.02147874 119.57727254 217 119 C216.39185959 118.39278138 215.78371918 117.78556276 215.15715027 117.15994358 C200.38328893 102.4081337 185.61217156 87.65358126 170.84413147 72.89594364 C163.70245514 65.75943113 156.55984129 58.62386161 149.41503906 51.49047852 C143.19012499 45.27550866 136.96695045 39.05880325 130.74588871 32.8399772 C127.44958276 29.54497881 124.15239193 26.25087664 120.8531189 22.95884895 C117.75171881 19.86420495 114.65263898 16.76725679 111.55537033 13.66847801 C110.41455736 12.52794155 109.27287861 11.38827036 108.13029861 10.24950409 C106.57781051 8.70194681 105.02838663 7.15138719 103.47973633 5.59999084 C102.60956375 4.73074006 101.73939117 3.86148928 100.84284973 2.96589756 C99 1 99 1 99 0 C165.33 0 231.66 0 300 0 C303.14584523 77.66025326 303.14584523 77.66025326 303.80859375 110.65234375 C303.96120267 118.19789001 304.11876982 125.74330775 304.28466797 133.28857422 C304.31552657 134.70620121 304.31552657 134.70620121 304.34700859 136.15246713 C304.64088808 149.36426539 305.12085844 162.55768898 305.75144691 175.75753216 C312.828105 324.12810063 312.828105 324.12810063 275.30190468 366.1391983 C243.38397258 399.86862388 202.70860985 406.29074437 158.47795868 407.64208603 C132.38649126 408.31769419 106.31573764 407.27039326 80.25581765 406.06361592 C67.83550591 405.49412585 55.42027784 405.10671622 42.98950195 404.85742188 C42.11958259 404.83991644 41.24966323 404.822411 40.35338267 404.8043751 C35.96828665 404.71722555 31.58313264 404.63357994 27.19792974 404.55199885 C18.39974517 404.38800277 9.60193134 404.20690808 0.80427551 404.01675415 C-0.06058529 403.99813295 -0.9254461 403.97951175 -1.81651481 403.96032627 C-13.9997661 403.69406565 -26.17287066 403.31200447 -38.35029602 402.84823608 C-99.04401991 400.56707207 -159.05718334 401 -220 401 C-220 314.87 -220 228.74 -220 140 C-180.4 140 -140.8 140 -100 140 C-100 186.2 -100 232.4 -100 280 C-7.6 280 84.8 280 180 280 C180 227.53 180 175.06 180 121 C159.87 121 139.74 121 119 121 C98.67820157 108.59883578 98.67820157 108.59883578 90.51215172 99.0228157 C86.91246412 94.88159261 83.10851696 90.96749602 79.26924133 87.04940796 C73.24919172 80.85295762 67.40181214 74.51871615 61.60630971 68.11255491 C54.98425501 60.81051926 48.17299259 53.69629144 41.34610307 46.58629537 C31.30572718 36.11978727 21.33889202 25.58666571 11.54587555 14.88798714 C10.49438342 13.73925697 9.44135537 12.59193065 8.38672066 11.44608498 C6.95478649 9.88831372 5.52980476 8.32451981 4.10722351 6.75820923 C2.90974503 5.44465423 2.90974503 5.44465423 1.68807507 4.10456276 C0 2 0 2 0 0 Z " fill="#FFFFFF" transform="translate(1483,1876)"/>
<path d="M0 0 C22.05467685 18.80069827 43.43375955 38.34916107 64.4375 58.3125 C65.44679581 59.27015715 65.44679581 59.27015715 66.47648144 60.24716091 C127.05390992 117.80012054 127.05390992 117.80012054 128.96220398 151.37818909 C129.08914775 156.84294482 128.73073102 162.19625981 128.125 167.625 C128.02788097 168.49639744 127.93076195 169.36779488 127.83069992 170.2655983 C126.5572953 180.81907795 124.35563709 190.90425404 121 201 C117.49775625 199.46476402 114.94316 197.3863185 112.07720947 194.86950684 C111.08725479 194.0008046 110.09730011 193.13210236 109.0773468 192.23707581 C107.98638093 191.26983523 106.89583411 190.30212183 105.80566406 189.33398438 C105.24233305 188.83597761 104.67900204 188.33797085 104.09860039 187.82487297 C92.84074082 177.86488664 81.83461541 167.63957685 70.90675735 157.31961823 C63.9649215 150.77372192 56.96971006 144.32387604 49.76806641 138.06396484 C-0.78171285 94.00439887 -0.78171285 94.00439887 -3.45016813 62.61594486 C-4.81828822 41.70212335 -3.02105001 20.69983607 0 0 Z " fill="#FFFFFF" transform="translate(1108,1876)"/>
<path d="M0 0 C69.93845375 -10.43375412 69.93845375 -10.43375412 95.70770645 7.85580063 C112.67078198 20.69304335 126.98228918 36.91230398 140.90665412 52.88738847 C147.32753132 60.23410969 154.00819918 67.32465427 160.71069264 74.41370463 C171.09765159 85.41217522 181.3448613 96.52624159 191.37744141 107.84912109 C191.87853361 108.41170309 192.37962582 108.97428509 192.89590263 109.55391502 C194.28103452 111.11159409 195.6589387 112.67529883 197.03408813 114.24179077 C197.80513193 115.11749411 198.57617573 115.99319744 199.37058449 116.89543724 C201 119 201 119 201 121 C132.12537843 131.53328042 132.12537843 131.53328042 106.29717064 113.0665226 C89.22564291 100.06457878 74.78625472 83.71172649 60.71999037 67.61068761 C54.22733926 60.19789911 47.48123662 53.03465729 40.71287334 45.87431157 C30.22477774 34.76857004 19.87414971 23.55033957 9.73022461 12.12915039 C9.22357773 11.55993488 8.71693085 10.99071938 8.19493103 10.40425491 C6.7967524 8.83111107 5.40264632 7.25449342 4.01060486 5.67591858 C3.2308879 4.79191911 2.45117094 3.90791964 1.64782619 2.9971323 C0 1 0 1 0 0 Z " fill="#FFFFFF" transform="translate(1917,1876)"/>
<path d="M0 0 C20.84715134 -4.45729831 48.10304139 -8.57906463 67.21603048 3.51933014 C86.82337977 16.99317974 102.97317437 35.85770375 118.83947742 53.38931239 C125.52282518 60.76023072 132.3938266 67.94539835 139.28065455 75.12568843 C149.9568469 86.2649867 160.53145716 97.49228346 170.95239258 108.87084961 C171.47495132 109.44006512 171.99751007 110.00928062 172.53590393 110.59574509 C173.9786508 112.16905253 175.41759195 113.7457262 176.85481262 115.32408142 C177.66050595 116.20808089 178.46619928 117.09208036 179.29630756 118.0028677 C181 120 181 120 181 121 C159.87592397 125.37915548 132.13045337 129.64176918 112.76921535 117.51514697 C93.26836864 104.23758142 77.24733497 85.5081407 61.53387809 68.11261153 C54.92221221 60.80779152 48.11665148 53.69521074 41.29577947 46.58629537 C30.72076714 35.55430798 20.24970704 24.43125111 9.93994141 13.15087891 C9.42293734 12.58829691 8.90593327 12.02571491 8.37326241 11.44608498 C6.9435572 9.88831828 5.52081733 8.32452856 4.10049438 6.75820923 C3.30347422 5.88250589 2.50645405 5.00680256 1.68528175 4.10456276 C0 2 0 2 0 0 Z " fill="#FFFFFF" transform="translate(2058,1876)"/>
<path d="M0 0 C21.12407603 -4.37915548 48.86954663 -8.64176918 68.23078465 3.48485303 C87.73163136 16.76241858 103.75266503 35.4918593 119.46612191 52.88738847 C126.07778779 60.19220848 132.88334852 67.30478926 139.70422053 74.41370463 C150.27923286 85.44569202 160.75029296 96.56874889 171.06005859 107.84912109 C171.57706266 108.41170309 172.09406673 108.97428509 172.62673759 109.55391502 C174.0564428 111.11168172 175.47918267 112.67547144 176.89950562 114.24179077 C178.09503587 115.55534577 178.09503587 115.55534577 179.31471825 116.89543724 C181 119 181 119 181 121 C160.15284866 125.45729831 132.89695861 129.57906463 113.78396952 117.48066986 C94.17662023 104.00682026 78.02682563 85.14229625 62.16052258 67.61068761 C55.47717482 60.23976928 48.6061734 53.05460165 41.71934545 45.87431157 C31.0431531 34.7350133 20.46854284 23.50771654 10.04760742 12.12915039 C9.2637693 11.27532713 9.2637693 11.27532713 8.46409607 10.40425491 C7.0213492 8.83094747 5.58240805 7.2542738 4.14518738 5.67591858 C3.33949405 4.79191911 2.53380072 3.90791964 1.70369244 2.9971323 C0 1 0 1 0 0 Z " fill="#FFFFFF" transform="translate(1362,1876)"/>
<path d="M0 0 C6.21398481 5.25308344 12.24751735 10.69580624 18.25952148 16.17797852 C18.80798044 16.67777536 19.3564394 17.17757221 19.92151833 17.69251442 C30.80761138 27.62459659 41.51777467 37.73745857 52.16618252 47.92350864 C58.92483574 54.38103944 65.72854382 60.77000769 72.6784668 67.02172852 C122.8327624 112.22899502 122.8327624 112.22899502 124.67779887 139.54899251 C125.33964618 153.43743093 123.71212009 167.39647915 121 181 C117.91193457 179.62389706 115.79935785 178.04876336 113.41508484 175.662323 C112.72132751 174.97276016 112.02757019 174.28319733 111.31278992 173.57273865 C110.56205704 172.81638626 109.81132416 172.06003387 109.0378418 171.28076172 C108.23895538 170.48377365 107.44006897 169.68678558 106.61697388 168.86564636 C103.9728087 166.22519047 101.33592298 163.57759216 98.69921875 160.9296875 C96.86118943 159.0904658 95.02279 157.25161391 93.18403625 155.41311646 C89.32669752 151.55421231 85.47262431 147.69209204 81.62133789 143.82714844 C77.18493372 139.37506915 72.74337592 134.9281867 68.29876012 130.48430622 C64.00989574 126.19605533 59.72396962 121.90488237 55.43949318 117.61224747 C53.62330312 115.79288566 51.80651597 113.97411969 49.98911095 112.15597153 C47.44033562 109.6050137 44.89488882 107.05078013 42.3503418 104.49560547 C41.60568161 103.75139847 40.86102142 103.00719147 40.09379578 102.24043274 C36.06977741 98.1919741 32.23197699 94.0569712 28.55733109 89.68752766 C26.13010411 87.05737875 23.42625106 85.38879724 20.41015625 83.45703125 C11.05837833 76.76857896 1.80474542 69.29020059 -0.75024414 57.55371094 C-3.23978855 38.62877799 -1.61195103 18.9341634 0 0 Z " fill="#FFFFFF" transform="translate(1108,1756)"/>
<path d="M0 0 C6.39502316 5.27090437 12.20574772 11.07801505 18.04418945 16.9465332 C19.14518748 18.04945328 20.24641554 19.15214378 21.34785461 20.25462341 C23.7069864 22.61690121 26.06455941 24.98071963 28.42092323 27.34575844 C32.14521687 31.08362542 35.8733676 34.81762938 39.60209656 38.55107117 C47.50853697 46.46858288 55.41072408 54.39033348 63.3125 62.3125 C71.86116444 70.88318934 80.41056145 79.45314039 88.96482438 88.01824254 C92.67379106 91.73219889 96.38030445 95.44858138 100.08497488 99.16682303 C102.38338407 101.47266992 104.68384374 103.77646255 106.98487663 106.07969093 C108.05405224 107.15074461 109.12236006 108.22266532 110.18975067 109.29549789 C111.64243195 110.7553544 113.09813047 112.2121333 114.55464172 113.66816711 C115.36963292 114.48537892 116.18462412 115.30259073 117.02431202 116.14456654 C118.86762648 118.05310852 118.86762648 118.05310852 121 119 C121 126.26 121 133.52 121 141 C117.17641289 139.08820645 115.10731796 137.40158883 112.07720947 134.46575928 C111.59601615 134.00179725 111.11482282 133.53783522 110.61904788 133.05981374 C109.00981348 131.50533653 107.40768483 129.94374401 105.80566406 128.38183594 C104.65264073 127.26427189 103.49934926 126.14698444 102.34580994 125.029953 C91.81106642 114.81350541 81.34989133 104.52086749 70.90675735 94.21088791 C63.19559132 86.60003095 55.45093978 79.02696437 47.65823007 71.49960303 C42.17161917 66.19357165 36.72830095 60.84542088 31.31417441 55.46546197 C28.08470874 52.25882677 24.83951241 49.0734297 21.54566193 45.9328537 C-1.12100841 24.27879686 -1.12100841 24.27879686 -1.71760941 12.25615311 C-1.53766452 8.01878854 -0.96303186 4.13228095 0 0 Z " fill="#FFFFFF" transform="translate(1108,1656)"/>
<path d="M0 0 C8.80514549 -2.10276434 17.27485914 -2.89414287 25.28084564 2.00951385 C33.7373107 8.36488812 40.97990581 16.33522204 48.26022863 23.96369886 C51.49710731 27.33174142 54.79663554 30.63731878 58.08938599 33.95059204 C63.59697792 39.50943322 69.06353189 45.10592042 74.50195312 50.73242188 C82.18083554 58.6768352 89.9278418 66.55201178 97.69127631 74.41370463 C108.08070511 84.94070875 118.44894529 95.48940515 128.7406826 106.11201286 C129.85490148 107.26095437 130.97078519 108.40828392 132.08840752 109.55391502 C133.60729289 111.11187598 135.11971203 112.67582854 136.63034058 114.24179077 C137.47931349 115.11749411 138.3282864 115.99319744 139.20298576 116.89543724 C141 119 141 119 141 121 C133.77258465 122.85086627 127.17507615 123.40924224 120 121 C109.91185546 114.68154409 101.80886192 105.34905863 93.63923621 96.80144048 C90.37009499 93.40378143 87.04084867 90.06602597 83.7179718 86.72105408 C77.44919698 80.39242376 71.23622683 74.01184955 65.04168874 67.61063045 C57.98251064 60.32173719 50.85964236 53.09645136 43.73228967 45.87431157 C33.24673506 35.24534911 22.7847301 24.5933218 12.38401222 13.8812809 C11.25763275 12.7214793 10.13044856 11.56245864 9.00242615 10.40425491 C7.47050242 8.83060725 5.9418859 7.25382658 4.41435242 5.67591858 C3.55670634 4.79191911 2.69906027 3.90791964 1.81542492 2.9971323 C0 1 0 1 0 0 Z " fill="#FFFFFF" transform="translate(2197,1876)"/>
<path d="M0 0 C7.22346661 -1.8280317 13.82937689 -2.39095179 21 0 C31.01550206 6.24394061 39.05581181 15.49255432 47.1588347 23.96369886 C50.40025788 27.32991518 53.7013711 30.63660134 56.99601746 33.95059204 C62.50788837 39.51098212 67.98062169 45.1074234 73.42651367 50.73242188 C81.11593538 58.67469719 88.87065634 66.55064092 96.64095271 74.41370463 C107.03940233 84.94228704 117.41794991 95.4913337 127.72238922 106.11201286 C128.83821672 107.26095974 129.95571213 108.40828936 131.07494926 109.55391502 C132.5960647 111.11188112 134.11072595 112.67583763 135.62361145 114.24179077 C136.47388318 115.11749411 137.32415491 115.99319744 138.20019245 116.89543724 C140 119 140 119 140 121 C132.77653339 122.8280317 126.17062311 123.39095179 119 121 C108.98449794 114.75605939 100.94418819 105.50744568 92.8411653 97.03630114 C89.59974212 93.67008482 86.2986289 90.36339866 83.00398254 87.04940796 C77.49211163 81.48901788 72.01937831 75.8925766 66.57348633 70.26757812 C58.88406462 62.32530281 51.12934366 54.44935908 43.35904729 46.58629537 C32.96059767 36.05771296 22.58205009 25.5086663 12.27761078 14.88798714 C11.16178328 13.73904026 10.04428787 12.59171064 8.92505074 11.44608498 C7.4039353 9.88811888 5.88927405 8.32416237 4.37638855 6.75820923 C3.52611682 5.88250589 2.67584509 5.00680256 1.79980755 4.10456276 C0 2 0 2 0 0 Z " fill="#FFFFFF" transform="translate(1263,1876)"/>
</svg>
