<?xml version="1.0" encoding="UTF-8" standalone="no" ?>
<!DOCTYPE svg PUBLIC "-//W3C//DTD SVG 1.1//EN" "http://www.w3.org/Graphics/SVG/1.1/DTD/svg11.dtd">
<svg
  xmlns="http://www.w3.org/2000/svg"
  xmlns:xlink="http://www.w3.org/1999/xlink"
  viewBox="0 0 1080 1080"
  style={{ width: '100%', height: '100%' }}
  className="w-full h-full outline"
>
<defs>
</defs>
<g transform="matrix(1 0 0 1 540 540)" id="a8d394d2-9a85-45ca-83eb-72d463a5d5da"  >
<rect style="stroke: none; stroke-width: 1; stroke-dasharray: none; stroke-linecap: butt; stroke-dashoffset: 0; stroke-linejoin: miter; stroke-miterlimit: 4; fill: rgb(255,255,255); fill-rule: nonzero; opacity: 1; visibility: hidden;" vector-effect="non-scaling-stroke"  x="-540" y="-540" rx="0" ry="0" width="1080" height="1080" />
</g>
<g transform="matrix(1 0 0 1 540 540)" id="f7cfd3b8-cfb5-4aec-bf3c-7fe82eb02ac6"  >
</g>
<g transform="matrix(1.04 0 0 1 541.56 540)"  >
<g style="" vector-effect="non-scaling-stroke"   >
		<g transform="matrix(1 0 0 1 -324.5 -269.5)"  >
<path style="stroke: none; stroke-width: 1; stroke-dasharray: none; stroke-linecap: butt; stroke-dashoffset: 0; stroke-linejoin: miter; stroke-miterlimit: 4; fill: rgb(254,255,254); fill-rule: evenodd; opacity: 0.907;" vector-effect="non-scaling-stroke"  transform=" translate(-1167.97, -1726)" d="M 1107.5 1655.5 C 1147.48 1695.15 1187.48 1734.81 1227.5 1774.5 C 1228.83 1781.83 1228.83 1789.17 1227.5 1796.5 C 1187.51 1757.01 1147.68 1717.35 1108 1677.5 C 1107.5 1670.17 1107.33 1662.84 1107.5 1655.5 Z" stroke-linecap="round" />
</g>
		<g transform="matrix(1 0 0 1 -324.49 -149.5)"  >
<path style="stroke: none; stroke-width: 1; stroke-dasharray: none; stroke-linecap: butt; stroke-dashoffset: 0; stroke-linejoin: miter; stroke-miterlimit: 4; fill: rgb(254,255,254); fill-rule: evenodd; opacity: 0.966;" vector-effect="non-scaling-stroke"  transform=" translate(-1167.98, -1846)" d="M 1107.5 1755.5 C 1147.8 1795.3 1187.97 1835.3 1228 1875.5 C 1228.83 1895.84 1228.67 1916.17 1227.5 1936.5 C 1187.15 1896.99 1147.32 1856.99 1108 1816.5 C 1107.5 1796.17 1107.33 1775.84 1107.5 1755.5 Z" stroke-linecap="round" />
</g>
		<g transform="matrix(1 0 0 1 -554.49 110)"  >
<path style="stroke: none; stroke-width: 1; stroke-dasharray: none; stroke-linecap: butt; stroke-dashoffset: 0; stroke-linejoin: miter; stroke-miterlimit: 4; fill: rgb(254,255,254); fill-rule: evenodd; opacity: 0.992;" vector-effect="non-scaling-stroke"  transform=" translate(-937.98, -2105.5)" d="M 647.5 1875.5 C 687.5 1875.5 727.5 1875.5 767.5 1875.5 C 767.333 1934.83 767.5 1994.17 768 2053.5 C 824.04 1997.13 880.373 1941.13 937 1885.5 C 993.654 1941.49 1050.32 1997.49 1107 2053.5 C 1107.33 2027.5 1107.67 2001.5 1108 1975.5 C 1148 2015.5 1188 2055.5 1228 2095.5 C 1228.83 2175.5 1228.67 2255.5 1227.5 2335.5 C 1130.82 2238.99 1033.99 2142.65 937 2046.5 C 840.667 2142.83 744.333 2239.17 648 2335.5 C 647.5 2182.17 647.333 2028.83 647.5 1875.5 Z" stroke-linecap="round" />
</g>
		<g transform="matrix(1 0 0 1 -324.49 -19.5)"  >
<path style="stroke: none; stroke-width: 1; stroke-dasharray: none; stroke-linecap: butt; stroke-dashoffset: 0; stroke-linejoin: miter; stroke-miterlimit: 4; fill: rgb(254,255,254); fill-rule: evenodd; opacity: 0.969;" vector-effect="non-scaling-stroke"  transform=" translate(-1167.98, -1976)" d="M 1107.5 1875.5 C 1147.8 1915.3 1187.97 1955.3 1228 1995.5 C 1228.83 2022.51 1228.67 2049.51 1227.5 2076.5 C 1187.51 2037.01 1147.68 1997.35 1108 1957.5 C 1107.5 1930.17 1107.33 1902.84 1107.5 1875.5 Z" stroke-linecap="round" />
</g>
		<g transform="matrix(1 0 0 1 -159.97 -59.52)"  >
<path style="stroke: none; stroke-width: 1; stroke-dasharray: none; stroke-linecap: butt; stroke-dashoffset: 0; stroke-linejoin: miter; stroke-miterlimit: 4; fill: rgb(254,255,254); fill-rule: evenodd; opacity: 0.906;" vector-effect="non-scaling-stroke"  transform=" translate(-1332.5, -1935.98)" d="M 1262.5 1875.5 C 1269.51 1875.33 1276.51 1875.5 1283.5 1876 C 1323.35 1915.68 1363.01 1955.51 1402.5 1995.5 C 1395.52 1996.66 1388.52 1996.83 1381.5 1996 C 1341.25 1956.25 1301.58 1916.08 1262.5 1875.5 Z" stroke-linecap="round" />
</g>
		<g transform="matrix(1 0 0 1 -40.47 -59.5)"  >
<path style="stroke: none; stroke-width: 1; stroke-dasharray: none; stroke-linecap: butt; stroke-dashoffset: 0; stroke-linejoin: miter; stroke-miterlimit: 4; fill: rgb(254,255,254); fill-rule: evenodd; opacity: 0.963;" vector-effect="non-scaling-stroke"  transform=" translate(-1452, -1936)" d="M 1361.5 1876.5 C 1382 1875.34 1402.66 1875.17 1423.5 1876 C 1463.35 1915.68 1503.01 1955.51 1542.5 1995.5 C 1522.17 1996.67 1501.84 1996.83 1481.5 1996 C 1441.63 1955.97 1401.63 1916.13 1361.5 1876.5 Z" stroke-linecap="round" />
</g>
		<g transform="matrix(1 0 0 1 30.06 80.47)"  >
<path style="stroke: none; stroke-width: 1; stroke-dasharray: none; stroke-linecap: butt; stroke-dashoffset: 0; stroke-linejoin: miter; stroke-miterlimit: 4; fill: rgb(254,255,254); fill-rule: evenodd; opacity: 0.994;" vector-effect="non-scaling-stroke"  transform=" translate(-1522.53, -2075.97)" d="M 1482.5 1875.5 C 1509.5 1875.33 1536.5 1875.5 1563.5 1876 C 1603.17 1915.67 1642.83 1955.33 1682.5 1995 C 1688.5 1995.67 1694.5 1995.67 1700.5 1995 C 1660.83 1955.33 1621.17 1915.67 1581.5 1876 C 1648.5 1875.5 1715.5 1875.33 1782.5 1875.5 C 1782.67 1982.83 1782.5 2090.17 1782 2197.5 C 1756.17 2223.33 1730.33 2249.17 1704.5 2275 C 1557.17 2275.42 1409.83 2275.92 1262.5 2276.5 C 1262.5 2189.5 1262.5 2102.5 1262.5 2015.5 C 1302.5 2015.5 1342.5 2015.5 1382.5 2015.5 C 1382.5 2062.17 1382.5 2108.83 1382.5 2155.5 C 1475.83 2155.5 1569.17 2155.5 1662.5 2155.5 C 1662.5 2102.5 1662.5 2049.5 1662.5 1996.5 C 1642.16 1996.67 1621.83 1996.5 1601.5 1996 C 1561.25 1956.25 1521.58 1916.08 1482.5 1875.5 Z" stroke-linecap="round" />
</g>
		<g transform="matrix(1 0 0 1 585.03 79.97)"  >
<path style="stroke: none; stroke-width: 1; stroke-dasharray: none; stroke-linecap: butt; stroke-dashoffset: 0; stroke-linejoin: miter; stroke-miterlimit: 4; fill: rgb(254,255,254); fill-rule: evenodd; opacity: 0.995;" vector-effect="non-scaling-stroke"  transform=" translate(-2077.5, -2075.47)" d="M 1817.5 1875.5 C 1844.5 1875.33 1871.5 1875.5 1898.5 1876 C 1938.5 1916 1978.5 1956 2018.5 1996 C 1991.5 1996.5 1964.5 1996.67 1937.5 1996.5 C 1937.5 2002.83 1937.5 2009.17 1937.5 2015.5 C 2070.83 2015.5 2204.17 2015.5 2337.5 2015.5 C 2337.5 2102.17 2337.5 2188.83 2337.5 2275.5 C 2164.17 2275.5 1990.83 2275.5 1817.5 2275.5 C 1836.48 2235.38 1856.15 2195.54 1876.5 2156 C 1990.17 2155.5 2103.83 2155.33 2217.5 2155.5 C 2217.5 2149.17 2217.5 2142.83 2217.5 2136.5 C 2084.17 2136.5 1950.83 2136.5 1817.5 2136.5 C 1817.5 2049.5 1817.5 1962.5 1817.5 1875.5 Z" stroke-linecap="round" />
</g>
		<g transform="matrix(1 0 0 1 524.53 -59.5)"  >
<path style="stroke: none; stroke-width: 1; stroke-dasharray: none; stroke-linecap: butt; stroke-dashoffset: 0; stroke-linejoin: miter; stroke-miterlimit: 4; fill: rgb(254,255,254); fill-rule: evenodd; opacity: 0.971;" vector-effect="non-scaling-stroke"  transform=" translate(-2017, -1936)" d="M 1916.5 1876.5 C 1943.66 1875.34 1971 1875.17 1998.5 1876 C 2038.35 1915.68 2078.01 1955.51 2117.5 1995.5 C 2090.51 1996.67 2063.51 1996.83 2036.5 1996 C 1996.63 1955.97 1956.63 1916.13 1916.5 1876.5 Z" stroke-linecap="round" />
</g>
		<g transform="matrix(1 0 0 1 655.53 -59.53)"  >
<path style="stroke: none; stroke-width: 1; stroke-dasharray: none; stroke-linecap: butt; stroke-dashoffset: 0; stroke-linejoin: miter; stroke-miterlimit: 4; fill: rgb(254,255,254); fill-rule: evenodd; opacity: 0.963;" vector-effect="non-scaling-stroke"  transform=" translate(-2148, -1935.97)" d="M 2057.5 1875.5 C 2077.84 1875.33 2098.17 1875.5 2118.5 1876 C 2158.5 1916 2198.5 1956 2238.5 1996 C 2217.83 1996.67 2197.17 1996.67 2176.5 1996 C 2136.25 1956.25 2096.58 1916.08 2057.5 1875.5 Z" stroke-linecap="round" />
</g>
		<g transform="matrix(1 0 0 1 774.53 -59.5)"  >
<path style="stroke: none; stroke-width: 1; stroke-dasharray: none; stroke-linecap: butt; stroke-dashoffset: 0; stroke-linejoin: miter; stroke-miterlimit: 4; fill: rgb(254,255,254); fill-rule: evenodd; opacity: 0.905;" vector-effect="non-scaling-stroke"  transform=" translate(-2267, -1936)" d="M 2196.5 1876.5 C 2203.65 1875.34 2210.99 1875.18 2218.5 1876 C 2258.35 1915.68 2298.01 1955.51 2337.5 1995.5 C 2330.52 1996.66 2323.52 1996.83 2316.5 1996 C 2276.63 1955.97 2236.63 1916.13 2196.5 1876.5 Z" stroke-linecap="round" />
</g>
</g>
</g>
</svg>